<svg width="140" height="193" viewBox="0 0 140 193" fill="none" xmlns="http://www.w3.org/2000/svg">
<path d="M22.715 168.025V180.24H25.025V168.025H22.715ZM19.425 171.455V183.6H21.525V171.455H19.425ZM26.25 171.455V182.795H28.35V171.455H26.25ZM25.935 160.605C25.655 162.145 25.06 164.42 24.535 165.855L26.915 166.555C27.51 165.225 28.21 163.195 28.91 161.34L25.935 160.605ZM19.18 161.375C19.845 163.02 20.44 165.19 20.58 166.52L23.065 165.785C22.89 164.455 22.26 162.355 21.56 160.78L19.18 161.375ZM14.805 156.51V188.15H18.27V160.185H31.22V156.51H14.805ZM29.575 156.51V183.81C29.575 184.37 29.4 184.51 28.875 184.545C28.35 184.545 26.6 184.545 24.92 184.475C25.445 185.455 25.935 187.135 26.04 188.15C28.665 188.15 30.38 188.08 31.535 187.45C32.69 186.855 33.04 185.77 33.04 183.88V156.51H29.575ZM19.04 166.835V169.95H28.735V166.835H19.04ZM20.265 178.525V181.64H27.335V178.525H20.265ZM3.22 164V167.465H13.23V164H3.22ZM1.82 170.055V173.625H13.72V170.055H1.82ZM1.96 175.585C2.52 177.545 3.01 180.065 3.08 181.745L5.775 181.01C5.635 179.365 5.11 176.88 4.515 174.955L1.96 175.585ZM1.295 183.67L2.17 187.415C5.67 186.75 10.22 185.84 14.49 184.93L14.21 181.465C9.52 182.34 4.62 183.18 1.295 183.67ZM11.305 174.675C11.13 176.355 10.64 178.84 10.185 180.38L12.705 181.01C13.125 179.54 13.65 177.335 14.175 175.34L11.305 174.675ZM6.3 165.47V184.23L9.87 183.705V165.47H6.3ZM6.335 155.285C5.25 158.05 3.255 161.41 0.315 163.93C1.12 164.49 2.31 165.82 2.835 166.66C6.265 163.475 8.4 159.8 9.73 157.14V156.055H8.54V155.285H6.335ZM6.895 155.285V158.19H7.525C9.38 159.8 11.655 162.845 12.635 164.63L15.295 161.27C14.14 159.485 11.69 157 9.73 155.285H6.895ZM47.81 179.925V183.355H68.95V179.925H47.81ZM52.78 173.345H63.7V175.13H52.78V173.345ZM52.78 168.725H63.7V170.51H52.78V168.725ZM49.175 165.68V178.175H67.515V165.68H49.175ZM56.175 166.835V188.15H60.165V166.835H56.175ZM51.905 159.205H54.145V161.55H51.905V159.205ZM48.65 156.51V164.245H57.575V156.51H48.65ZM62.16 159.205H64.47V161.55H62.16V159.205ZM58.8 156.51V164.245H68.005V156.51H58.8ZM43.715 171.28V171.91C43.4 179.89 43.05 183.005 42.385 183.74C42 184.09 41.685 184.16 41.16 184.16C40.46 184.16 38.99 184.16 37.485 184.02C38.185 185.14 38.675 186.89 38.745 188.15C40.425 188.185 42.035 188.185 42.98 188.01C44.135 187.87 44.905 187.555 45.675 186.575C46.725 185.315 47.11 181.64 47.495 172.89C47.53 172.4 47.565 171.28 47.565 171.28H43.715ZM37.38 164.385C37.205 168.165 36.715 172.96 36.26 176.04L39.9 176.6C40.32 173.415 40.775 168.41 41.055 164.385H37.38ZM38.43 171.28L38.01 174.885H45.22V171.28H38.43ZM38.185 164.385V168.13H47.425V156.755H36.89V160.465H43.435V164.385H38.185ZM83.02 157.665V161.13H103.215V157.665H83.02ZM82.39 177.37V180.8H103.32V177.37H82.39ZM87.15 155.285V163.125H91.105V155.285H87.15ZM95.165 155.285V163.125H99.26V155.285H95.165ZM87.885 170.895H97.545V172.4H87.885V170.895ZM87.885 166.66H97.545V168.13H87.885V166.66ZM84 163.72V175.34H101.605V163.72H84ZM90.79 174.92C90.3 180.065 89.215 183.18 81.095 184.79C81.865 185.63 82.88 187.17 83.23 188.15C92.54 185.945 94.255 181.64 94.885 174.92H90.79ZM95.83 178.56L92.33 179.295C93.975 183.74 96.88 186.75 101.71 188.115C102.235 187.03 103.39 185.455 104.265 184.65C100.03 183.81 97.16 181.64 95.83 178.56ZM71.47 161.83V165.68H82.425V161.83H71.47ZM75.25 155.285V188.15H79.24V155.285H75.25ZM75.67 164.7C74.83 169.11 72.87 174.64 70.63 177.58C71.295 178.7 72.24 180.625 72.625 181.85C75.005 178.21 77 171.35 77.945 165.575L75.67 164.7ZM79.03 166.625L77.105 168.165C78.155 169.985 80.185 174.115 80.99 176.25L83.51 173.345C82.845 172.225 79.87 167.675 79.03 166.625ZM108.115 156.545V160.185H124.11V156.545H108.115ZM106.925 163.895V167.57H124.915V163.895H106.925ZM106.61 183.145V187.03H138.285V183.145H106.61ZM110.145 176.53V180.31H134.785V176.53H110.145ZM117.705 157.945V174.325H121.625V157.945H117.705ZM120.295 173.765V186.015H124.635V173.765H120.295ZM126.385 157.315V169.18H130.2V157.315H126.385ZM132.79 155.705V170.615C132.79 171.07 132.615 171.21 132.125 171.21C131.6 171.245 129.885 171.245 128.275 171.175C128.835 172.225 129.395 173.8 129.57 174.885C132.02 174.885 133.805 174.815 135.1 174.22C136.43 173.625 136.78 172.645 136.78 170.685V155.705H132.79ZM110.915 158.015V164.14C110.915 167.01 110.46 170.16 106.19 172.365C106.96 172.925 108.395 174.5 108.92 175.27C113.785 172.645 114.765 168.095 114.765 164.245V158.015H110.915Z" fill="#1E2A2F"/>
<path d="M9 0H131V138.053H9V0ZM111.73 45.3399C111.56 45.0479 111.47 44.8907 111.39 44.7335C107.5 37.4445 103.6 30.1667 99.72 22.8777C99.54 22.552 99.23 22.3499 98.89 22.3499C95.74 22.3723 92.58 22.3611 89.43 22.3611C89.23 22.3611 89.04 22.3611 88.85 22.3611C88.85 37.2423 88.85 52.0224 88.85 66.825H98.99C98.99 59.4462 98.99 52.1011 98.99 44.5762C99.16 44.8795 99.25 45.0255 99.34 45.1827C103.1 52.3144 106.85 59.4462 110.6 66.5892C110.78 66.9261 111.1 67.1283 111.45 67.1283C114.46 67.1058 117.47 67.117 120.48 67.117C120.66 67.117 120.84 67.0946 121.04 67.0946C121.04 52.1797 121.04 37.3097 121.04 22.4173H111.74C111.73 30.0207 111.73 37.6017 111.73 45.3399ZM18.76 66.6004C18.96 66.6004 19.11 66.6004 19.26 66.6004C26.85 66.6004 34.44 66.6004 42.03 66.6004C42.24 66.6004 42.58 66.5667 42.78 66.5218C45.4 65.949 47.55 64.489 49.02 61.9395C50.88 58.7162 51.58 55.1896 50.97 51.3823C50.55 48.7317 49.6 46.3732 47.68 44.6324C47.22 44.2168 46.7 43.8799 46.18 43.4756C46.28 43.4419 46.34 43.4082 46.4 43.3857C48.85 42.5097 50.26 40.6229 50.71 37.8151C51.08 35.479 50.83 33.143 50.44 30.8518C49.61 25.8989 45.71 22.3499 41.23 22.3499C33.96 22.3499 26.69 22.3499 19.42 22.3499C19.21 22.3499 18.99 22.3499 18.75 22.3499C18.76 37.13 18.76 51.8203 18.76 66.6004ZM18.97 118.612C19.18 118.623 19.33 118.634 19.48 118.634C25.53 118.634 31.57 118.634 37.62 118.634C37.78 118.612 38.05 118.589 38.22 118.567C46.74 116.624 51.2 110.132 52.34 101.439C52.64 99.1256 52.58 96.812 52.51 94.4984C52.42 91.5671 52.13 88.6583 51.32 85.8505C50.04 81.4254 47.78 77.8764 44.09 75.619C42.44 74.6082 40.7 73.8782 38.79 73.8669C32.4 73.8557 26.02 73.8669 19.63 73.8669C19.42 73.8669 19.2 73.8669 18.97 73.8669C18.97 88.8155 18.97 103.685 18.97 118.612ZM48.8 118.095H71.51V108.627H63.11C64.84 103.292 66.53 98.0587 68.26 92.7015C68.36 93.0047 68.42 93.1732 68.48 93.3529C70.95 101.428 73.42 109.514 75.87 117.59C76.01 118.039 76.19 118.162 76.59 118.162C79.67 118.14 82.76 118.151 85.84 118.151C86.02 118.151 86.2 118.129 86.42 118.106C86.36 117.848 86.32 117.646 86.27 117.455C82.2 103.034 78.13 88.6133 74.08 74.1926C73.95 73.7434 73.76 73.6311 73.36 73.6311C70.12 73.6535 66.89 73.6535 63.65 73.6311C63.3 73.6311 62.98 73.8782 62.86 74.2488C58.96 86.4345 55.05 98.609 51.15 110.795C50.37 113.187 49.6 115.602 48.8 118.095ZM87.29 66.8475C87.24 66.6116 87.21 66.4432 87.16 66.2859C83.08 51.809 78.99 37.3434 74.91 22.8553C74.79 22.4397 74.63 22.3499 74.27 22.3499C71.03 22.3611 67.8 22.3723 64.56 22.3386C64.03 22.3274 63.84 22.5408 63.68 23.0574C59.12 37.2985 54.55 51.5283 49.98 65.7581C49.87 66.095 49.78 66.4319 49.67 66.8138C57.26 66.8138 64.79 66.8138 72.34 66.8138C72.36 66.4432 72.41 66.1961 72.32 65.8479C71.91 64.2531 71.72 62.5909 71.97 60.9624C72.47 57.6941 72.62 57.3235 71.8 57.3347C69.41 57.3572 67.02 57.346 64.63 57.346C64.43 57.346 64.23 57.346 63.96 57.346C65.68 52.0224 67.38 46.7775 69.11 41.4203C69.22 41.7348 69.29 41.9257 69.35 42.1278C71.8 50.1581 74.25 58.1771 76.68 66.2073C76.83 66.6902 77.01 66.8812 77.49 66.8699C80.56 66.8363 83.62 66.8587 86.69 66.8587C86.89 66.8475 87.07 66.8475 87.29 66.8475ZM98.33 118.095V73.9118H88.41V118.095H98.33Z" fill="#1E2A2F"/>
<path d="M31.94 40.0725C31.94 42.6107 31.94 45.0816 31.94 47.6086C32.13 47.6198 32.31 47.6423 32.48 47.6423C34.41 47.6423 36.34 47.6647 38.27 47.631C38.88 47.6198 39.3 47.9006 39.66 48.3948C40.29 49.2708 40.54 50.3153 40.68 51.3935C40.92 53.1455 40.6 54.7965 39.97 56.3913C39.41 57.784 38.85 58.1097 37.51 58.076C34.63 57.9861 31.75 57.93 28.87 57.8738C28.41 57.8626 28.23 57.7503 28.23 57.1775C28.25 48.6306 28.24 40.095 28.23 31.5481C28.23 31.0427 28.33 30.863 28.82 30.8743C31.63 30.8967 34.45 30.9529 37.26 30.863C39.27 30.8069 40.51 32.3905 40.82 34.0414C41.06 35.3105 41.08 36.5684 40.69 37.8038C40.23 39.2639 39.26 40.0613 37.89 40.0725C36.08 40.095 34.26 40.0838 32.45 40.0838C32.31 40.0725 32.16 40.0725 31.94 40.0725Z" fill="#1E2A2F"/>
<path d="M28.75 109.099C28.75 100.372 28.75 91.6682 28.75 82.908C28.96 82.908 29.14 82.908 29.32 82.908C31.64 82.908 33.96 82.9417 36.28 82.8855C37.2 82.8631 37.97 83.1775 38.7 83.7391C40.71 85.2777 41.79 87.5127 42.45 90.051C42.98 92.095 43.3 94.1952 43.14 96.2954C42.84 100.136 42.06 103.843 39.91 106.987C38.92 108.425 37.6 109.155 35.95 109.133C33.73 109.11 31.51 109.121 29.3 109.121C29.11 109.121 28.95 109.11 28.75 109.099Z" fill="#1E2A2F"/>
</svg>
