<svg id="圖層_1" data-name="圖層 1" xmlns="http://www.w3.org/2000/svg" viewBox="0 0 149.3 115.55"><defs><style>.cls-1{fill:#1e2a2f;}.cls-2{fill:none;}</style></defs><path class="cls-1" d="M6,120.56c-.85-.42-1.7-.93-2.56-1.39C1.62,118.1.16,116,.37,113.94c.4-3.29,1-6.61,1.79-10.32.39-2.17,3.41-4.83,6-4.49A5.51,5.51,0,0,1,11,100.37C5.81,106.62,6.66,114.32,6,120.56Z" transform="translate(-0.35 -38.39)"/><path class="cls-1" d="M144,120.56c.85-.42,1.7-.93,2.56-1.39,1.86-1.07,3.32-3.18,3.11-5.23-.4-3.29-1-6.61-1.79-10.32-.39-2.17-3.41-4.83-6-4.49a5.51,5.51,0,0,0-2.84,1.24C144.19,106.62,143.34,114.32,144,120.56Z" transform="translate(-0.35 -38.39)"/><path class="cls-1" d="M72.38,60.76v8.85h5.24V60.76a10.89,10.89,0,0,1-5.24,0Z" transform="translate(-0.35 -38.39)"/><path class="cls-1" d="M86.35,49.73a11.35,11.35,0,1,0-14,11V57.51a8.21,8.21,0,1,1,5.24,0v3.25A11.36,11.36,0,0,0,86.35,49.73Z" transform="translate(-0.35 -38.39)"/><path class="cls-1" d="M75,57.94a8.13,8.13,0,0,1-2.62-.43v3.25a10.89,10.89,0,0,0,5.24,0V57.51A8.18,8.18,0,0,1,75,57.94Z" transform="translate(-0.35 -38.39)"/><path class="cls-1" d="M80.63,47a7.46,7.46,0,0,1,.08,1,6.45,6.45,0,0,1-9.31,5.84,5.76,5.76,0,0,0,4,1.64A5.86,5.86,0,0,0,80.63,47Z" transform="translate(-0.35 -38.39)"/><path class="cls-2" d="M36.7,78.21a1.49,1.49,0,0,0,0,.19l.19.49c.85-.52,1.7-1,2.57-1.5Z" transform="translate(-0.35 -38.39)"/><path class="cls-2" d="M111.16,87.88l-.12,0,.32-.81A64.92,64.92,0,0,0,75.09,76.13H74.9A65,65,0,0,0,39.84,86.26c.2.53.41,1.06.62,1.59l-.12,0-.2-.15-1.2-.89A60.67,60.67,0,0,0,22.69,102.7c-6,9-6.22,20.15-.53,29.85,5.29,9,14.22,14.2,23.28,13.49C55.18,145.33,65,145,74.78,145s19.87.36,29.73,1.09c9.1.73,18-4.43,23.31-13.46,5.7-9.7,5.5-20.88-.53-29.91a60.36,60.36,0,0,0-15.45-15.33l-.48.36Z" transform="translate(-0.35 -38.39)"/><path class="cls-1" d="M39.5,77.39c-.87.48-1.72,1-2.57,1.5.61,1.54,1.23,3.09,1.84,4.64.35.91.71,1.82,1.07,2.73A65,65,0,0,1,74.9,76.13h.19A64.92,64.92,0,0,1,111.36,87c.45-1.17.91-2.34,1.37-3.51s1-2.6,1.54-3.89A72.76,72.76,0,0,0,75.09,68.32H74.9a73.09,73.09,0,0,0-33.82,8.22c.1.07.19.15.35.28Z" transform="translate(-0.35 -38.39)"/><path class="cls-1" d="M133.74,98.31a68.22,68.22,0,0,0-15.29-15.78l-6.61,4.84a60.36,60.36,0,0,1,15.45,15.33c6,9,6.23,20.21.53,29.91-5.3,9-14.21,14.19-23.31,13.46-9.86-.73-19.8-1.09-29.73-1.09s-19.6.35-29.34,1.06c-9.06.71-18-4.45-23.28-13.49-5.69-9.7-5.48-20.88.53-29.85A60.67,60.67,0,0,1,38.94,86.84L32.29,82a68.55,68.55,0,0,0-16,16.33,35.69,35.69,0,0,0-.82,38.2C22.25,148.14,34,154.78,46,153.82a396.52,396.52,0,0,1,57.88,0c.78.06,1.55.09,2.33.09,11.23,0,21.92-6.5,28.31-17.38A35.72,35.72,0,0,0,133.74,98.31Z" transform="translate(-0.35 -38.39)"/><path class="cls-1" d="M128.68,110.66a23.91,23.91,0,0,0-15.82-13.49c1.17-1.76,2.39-3.48,3.66-5.14.79-1,1.56-2,2.37-2.88.4-.48.81-.92,1.22-1.36.2-.22.4-.44.6-.63a5.47,5.47,0,0,1,.52-.5l-1.86-1.56,6.7-4.91.32-.25.12-.1a2.62,2.62,0,0,0-.9-4.55l-2-.59,1.3-3.29c.39-1,.78-2,1.16-3l.28-.71a2.59,2.59,0,0,0-.09-2.11,2.62,2.62,0,0,0-1.61-1.36l-.12,0a2.6,2.6,0,0,0-2.36.46l-.1.08-13.17,9.65-.32.26-.14.11a2.61,2.61,0,0,0,.91,4.54l.38.11-.32.52c-.38.64-.76,1.29-1.1,1.94-.73,1.29-1.36,2.59-2,3.89q-1.86,3.92-3.36,7.92c-.35.92-.67,1.84-1,2.77-.61.09-1.22.18-1.83.32a114.84,114.84,0,0,1-50.22,0c-.6-.13-1.21-.23-1.81-.31-.32-.93-.64-1.85-1-2.77q-1.5-4-3.36-7.92c-.65-1.3-1.28-2.6-2-3.89-.34-.65-.72-1.3-1.1-1.94l-.09-.15,1.65-.48a2.62,2.62,0,0,0,.9-4.54l-.13-.11-.33-.26L29.53,64.83l-.09-.06-.09-.08A2.6,2.6,0,0,0,27,64.23l-.12,0a2.63,2.63,0,0,0-1.7,3.47l2.74,7-2,.59a2.61,2.61,0,0,0-.9,4.55l.13.11.31.24,5.9,4.33-2.56,2.14a5.47,5.47,0,0,1,.52.5c.2.19.4.41.6.63.41.44.82.88,1.22,1.36.81.92,1.58,1.91,2.37,2.88,1.27,1.66,2.49,3.38,3.65,5.14a23.88,23.88,0,0,0-15.81,13.48,18.56,18.56,0,0,0,1,15.89c3.5,6.79,10.18,11.73,18.34,13.56A155.83,155.83,0,0,0,75,143.9a155.83,155.83,0,0,0,34.33-3.8c8.16-1.83,14.84-6.77,18.34-13.56A18.54,18.54,0,0,0,128.68,110.66ZM27,78.08l-.34-.28,4.74-1.39-.07-.24c-.75-1.91-1.51-3.81-2.26-5.72L27.6,66.77l.12,0,.25.19,13.09,9.6c.11.07.2.16.37.29L36.7,78.21a1.49,1.49,0,0,0,0,.19q1,2.56,2,5.13.84,2.16,1.69,4.32l-.12,0-.2-.15Zm26.27,53.29c-5-.12-12.24-6.22-14.64-13.48s1.94-13.26,7.69-13.43,11.21,5.88,12.86,13.42S58.23,131.48,53.24,131.37Zm57.19-54.84,13.1-9.6.25-.19.12,0-1.44,3.68c-.75,1.91-1.51,3.81-2.26,5.72l-.07.24,4.74,1.39-.34.28-13.17,9.65-.2.15-.12,0,1.69-4.32q1-2.57,2-5.13a1.49,1.49,0,0,0,0-.19l-4.73-1.39C110.24,76.69,110.33,76.6,110.43,76.53Zm1,41.36c-2.4,7.26-9.69,13.36-14.64,13.48s-7.44-6-5.91-13.49,7.11-13.57,12.86-13.42S113.74,110.63,111.4,117.89Z" transform="translate(-0.35 -38.39)"/></svg>