<svg width="140" height="197" viewBox="0 0 140 197" fill="none" xmlns="http://www.w3.org/2000/svg">
<path d="M1.33 173.075V177.66H33.74V173.075H1.33ZM35.7 177.205L36.75 181.23C40.075 180.355 44.31 179.2 48.3 178.08L47.81 174.3C43.435 175.385 38.815 176.54 35.7 177.205ZM36.225 165.9V169.785H47.88V165.9H36.225ZM40.46 159.285V187.74C40.46 188.23 40.285 188.405 39.795 188.405C39.34 188.405 37.905 188.405 36.54 188.37C37.065 189.42 37.59 191.1 37.695 192.15C40.145 192.15 41.825 192.045 42.98 191.415C44.135 190.785 44.52 189.735 44.52 187.775V159.285H40.46ZM48.685 167.125V192.08H52.675V171.115H64.015V191.87H68.215V167.125H48.685ZM51.205 176.155V180.075H65.17V176.155H51.205ZM51.31 185.535V189.56H65.31V185.535H51.31ZM56.28 159.355V187.985H60.235V159.355H56.28ZM78.015 161.245V165.515H87.92V161.245H78.015ZM85.855 161.245C85.855 168.385 87.395 184.03 100.73 192.045C101.465 190.995 103.145 189.14 104.125 188.37C91.14 180.775 90.195 167.895 90.195 161.245H85.855ZM84.35 168.91C82.46 178.185 78.26 184.975 70.945 188.685C72.03 189.455 73.99 191.205 74.76 192.115C82.075 187.705 86.73 180.18 89.18 169.785L84.35 168.91ZM107.38 162.26V165.9H118.335V162.26H107.38ZM106.33 170.38V174.09H119.35V170.38H106.33ZM126.735 164.5V176.085H130.445V164.5H126.735ZM105.875 182.84L106.89 186.62C109.935 185.99 113.82 185.15 117.495 184.38L117.215 180.985C113.05 181.72 108.745 182.455 105.875 182.84ZM122.185 176.96C121.835 182.98 120.995 186.97 114.1 189.14C114.905 189.875 115.92 191.345 116.305 192.29C124.18 189.49 125.475 184.38 125.965 176.96H122.185ZM127.435 176.75V187.04C127.435 190.54 128.24 191.59 131.705 191.59C132.405 191.59 134.855 191.59 135.59 191.59C138.075 191.59 139.09 190.645 139.51 187.285C138.495 187.075 137.025 186.48 136.29 185.92C136.15 187.845 136.01 188.195 135.17 188.195C134.645 188.195 132.685 188.195 132.23 188.195C131.18 188.195 131.075 188.055 131.075 187.04V176.75H127.435ZM113.715 177.065C115.115 179.97 116.445 183.82 116.865 186.34L120.295 185.22C119.735 182.7 118.405 178.955 116.9 176.05L113.715 177.065ZM126.7 159.25C126.455 160.65 125.895 162.61 125.37 164.045L128.87 164.71C129.57 163.485 130.48 161.665 131.285 159.81L126.7 159.25ZM109.585 172.97C109.235 176.26 108.36 180.81 107.59 183.61L110.95 184.38C111.825 181.685 112.805 177.45 113.645 173.705L109.585 172.97ZM130.795 183.505L131.6 186.2C133.385 185.85 135.205 185.5 137.2 185.08L137.095 182.805C134.68 183.085 132.545 183.33 130.795 183.505ZM135.1 181.16C135.835 182.665 136.5 184.765 136.675 186.095L138.985 185.29C138.775 183.96 138.075 181.93 137.27 180.425L135.1 181.16ZM132.685 178.045C132.475 179.83 131.95 182.455 131.46 184.1L133.63 184.73C134.26 183.19 135.03 180.705 135.73 178.64L132.685 178.045ZM123.48 171.43H133.805V174.125H123.48V171.43ZM123.48 165.83H133.805V168.455H123.48V165.83ZM119.735 162.645V177.31H137.69V162.645H119.735Z" fill="black"/>
<path d="M70 142.053L16 123.452V19.7607L70 38.3618V142.053Z" stroke="black" stroke-width="6.0256" stroke-miterlimit="10" stroke-linecap="round" stroke-linejoin="round"/>
<path d="M124 123.452L70 142.053V38.3618L124 19.7607V123.452Z" fill="#BFBFBF" stroke="black" stroke-width="6.0256" stroke-miterlimit="10" stroke-linecap="round" stroke-linejoin="round"/>
<path d="M70 38.3618L16 19.6211L70 4L124 19.6211L70 38.3618Z" stroke="black" stroke-width="6.0256" stroke-miterlimit="10" stroke-linecap="round" stroke-linejoin="round"/>
</svg>
